<svg xmlns="http://www.w3.org/2000/svg" viewBox="390 840 1180 370">
  <path fill="currentColor" d="M1316.87 1027.98c1.42-22.28 7.61-40.52 25.15-55.694 36.95-31.957 123.64-34.366 156.79 4 22.47 26.004 18.29 71.534 18.25 104.104l-.1 105.51-45.63.15c-1.78-8.86.82-29.41-.9-40.66-24.57 51.08-96.32 58.04-138.9 26.78-23.7-17.4-28.3-58.48-15.84-83.02 23.87-47.02 111.44-44.77 156.1-44.45-.08-15.46.59-33.64-11.64-45.179-20.7-19.522-67.31-17.917-87.03 2.649-7.13 7.44-8.83 15.85-9.6 25.69-15.55.13-31.1.18-46.65.12"></path>
  <path fill="currentColor" opacity=".35" d="M1470.43 1145.39c.06-1.16-.05-1.1.39-2.01.16-.01.31-.03.47-.04 1.37 1.48.74 38.17.04 42.71-1.78-8.86.82-29.41-.9-40.66"></path>
  <path class="counter" d="m1459.2 1078.41 12.38-.62c.16 11.8.88 25.69-2.73 37.03-11.91 37.34-61.99 45.68-94.57 34.57-19.13-9-27.08-32.6-12.62-48.01 19.92-21.22 68.99-20.92 97.54-22.97"></path>
  <path fill="var(--tila-logo-accent,#6c8aff)" d="M701.628 860.994c22.092 12.302 45.529 26.971 67.251 40.057l102.365 61.261-169.513 101.118c-5.174-3.48-11.495-7.04-16.931-10.19-51.113-29.59-101.25-61.552-152.585-90.705z"></path>
  <path fill="currentColor" d="m979.972 875.171 45.648-.009-.22 80.16 71.34.04.04 37.538-71.23.016.06 86.544c-.02 13.36-1.51 35.85 1.19 48 6.83 30.76 57.16 18.04 77.78 11.64l.12 26.15.02 11.51c-61.57 25.39-130.088 19.67-124.955-63.61.51-8.26.093-19.63.098-28.13l.015-92.1-54.689-.078.052-37.5 54.626.149z"></path>
  <path fill="currentColor" d="M1276.94 860.48c1.56-.035 1.68.14 3.24.513 2.31 4.822 1.16 101.316 1.14 115.189l-.01 209.018-40.56-.11c-2.32 0-1.51.07-3.76-.73-2.37-5.81-.93-291.709-.94-323.792 13.13.381 27.66.006 40.89-.088"></path>
  <path fill="var(--tila-logo-accent,#6c8aff)" d="M564.739 1064.82c8.501 3.1 36.108 20.2 44.739 25.37a4954 4954 0 0 0 92.542 55.13c45.148-25.79 90.945-54.1 135.923-80.64q16.508 9.795 33.132 19.41a2422 2422 0 0 0-31.614 18.97 11044 11044 0 0 1-137.666 82.46c-55.938-33.31-113.522-68.96-169.664-101.32 10.417-5.66 22.305-13.18 32.608-19.38"></path>
  <path fill="var(--tila-logo-accent,#6c8aff)" d="M565.263 1003.95c3.541 1.13 11.511 6.52 15.284 8.67 40.739 23.25 80.465 49.57 121.697 71.84 14.102-7.39 33.592-19.71 47.523-28.03l87.793-52.52q16.898 9.765 33.674 19.74c-9.91 6.4-22.41 13.34-32.734 19.41a11108 11108 0 0 1-136.6 81.56c-56.464-31.44-113.388-68.71-170.026-101 11.054-6.06 22.506-13.16 33.389-19.67"></path>
  <path fill="currentColor" d="m1136.82 953.848 45.09-.072-.02 231.294h-45.07z"></path>
  <path fill="currentColor" d="m1136.99 863.023 44.86-.069-.07 54.998-44.87-.006z"></path>
</svg>